<svg xmlns="http://www.w3.org/2000/svg" xmlns:xlink="http://www.w3.org/1999/xlink" x="0" y="0" width="661.8333129882812" height="125.21665954589844" style="
        width:661.8333129882812px;
        height:125.21665954589844px;
        background: transparent;
        fill: none;
">
        
        
        <svg xmlns="http://www.w3.org/2000/svg" class="role-diagram-draw-area"><g class="shapes-region" style="stroke: black; fill: none;"><g class="arrow-line"><path class="connection real" stroke-dasharray="" d="  M189.8,70.2 L239.8,30.2" style="stroke: rgb(0, 0, 0); stroke-width: 4px; fill: none; fill-opacity: 1;"/></g><g class="arrow-line"><path class="connection real" stroke-dasharray="" d="  M390.41,89.8 L420.41,30.2" style="stroke: rgb(0, 0, 0); stroke-width: 4px; fill: none; fill-opacity: 1;"/></g><g class="arrow-line"><path class="connection real" stroke-dasharray="" d="  M260,90 L239.8,30.2" style="stroke: rgb(0, 0, 0); stroke-width: 4px; fill: none; fill-opacity: 1;"/></g><g class="arrow-line"><path class="connection real" stroke-dasharray="" d="  M189.8,70.2 L260,90" style="stroke: rgb(0, 0, 0); stroke-width: 4px; fill: none; fill-opacity: 1;"/></g><g class="arrow-line"><path class="connection real" stroke-dasharray="" d="  M390,89.8 L469.8,80" style="stroke: rgb(0, 0, 0); stroke-width: 4px; fill: none; fill-opacity: 1;"/></g><g class="arrow-line"><path class="connection real" stroke-dasharray="" d="  M419.8,30 L469.8,80" style="stroke: rgb(0, 0, 0); stroke-width: 4px; fill: none; fill-opacity: 1;"/></g><g class="composite-shape"><path class="real" d=" M449.59,80 C449.59,68.84 458.64,59.8 469.8,59.8 C480.95,59.8 490,68.84 490,80 C490,91.16 480.95,100.2 469.8,100.2 C458.64,100.2 449.59,91.16 449.59,80 Z" style="stroke-width: 4px; stroke: rgb(0, 0, 0); stroke-opacity: 1; fill: rgb(74, 144, 226); fill-opacity: 1;"/></g><g class="arrow-line"><path class="connection real" stroke-dasharray="10.5 6" d="  M260,90 L390,90" style="stroke: rgb(0, 0, 0); stroke-width: 4px; fill: none; fill-opacity: 1;"/></g><g class="arrow-line"><path class="connection real" stroke-dasharray="10.5 6" d="  M240.2,30.2 L420.82,30.2" style="stroke: rgb(0, 0, 0); stroke-width: 4px; fill: none; fill-opacity: 1;"/></g><g class="composite-shape"><path class="real" d=" M219.59,30.2 C219.59,19.05 228.64,10 239.8,10 C250.95,10 260,19.05 260,30.2 C260,41.36 250.95,50.41 239.8,50.41 C228.64,50.41 219.59,41.36 219.59,30.2 Z" style="stroke-width: 4px; stroke: rgb(0, 0, 0); stroke-opacity: 1; fill: rgb(208, 2, 27); fill-opacity: 1;"/></g><g class="composite-shape"><path class="real" d=" M239.8,90 C239.8,78.84 248.84,69.8 260,69.8 C271.16,69.8 280.2,78.84 280.2,90 C280.2,101.16 271.16,110.2 260,110.2 C248.84,110.2 239.8,101.16 239.8,90 Z" style="stroke-width: 4px; stroke: rgb(0, 0, 0); stroke-opacity: 1; fill: rgb(208, 2, 27); fill-opacity: 1;"/></g><g class="composite-shape"><path class="real" d=" M170,70.2 C170,59.05 179.05,50 190.2,50 C201.36,50 210.41,59.05 210.41,70.2 C210.41,81.36 201.36,90.41 190.2,90.41 C179.05,90.41 170,81.36 170,70.2 Z" style="stroke-width: 4px; stroke: rgb(0, 0, 0); stroke-opacity: 1; fill: rgb(208, 2, 27); fill-opacity: 1;"/></g><g class="composite-shape"><path class="real" d=" M400.61,30.2 C400.61,19.05 409.66,10 420.82,10 C431.98,10 441.02,19.05 441.02,30.2 C441.02,41.36 431.98,50.41 420.82,50.41 C409.66,50.41 400.61,41.36 400.61,30.2 Z" style="stroke-width: 4px; stroke: rgb(0, 0, 0); stroke-opacity: 1; fill: rgb(74, 144, 226); fill-opacity: 1;"/></g><g class="composite-shape"><path class="real" d=" M370.2,89.8 C370.2,78.64 379.25,69.59 390.41,69.59 C401.57,69.59 410.61,78.64 410.61,89.8 C410.61,100.95 401.57,110 390.41,110 C379.25,110 370.2,100.95 370.2,89.8 Z" style="stroke-width: 4px; stroke: rgb(0, 0, 0); stroke-opacity: 1; fill: rgb(74, 144, 226); fill-opacity: 1;"/></g><g/></g><g/><g/><g/></svg>
        <svg xmlns="http://www.w3.org/2000/svg" xmlns:xlink="http://www.w3.org/1999/xlink" width="660" height="123.38334655761719" style="width:660px;height:123.38334655761719px;font-family:Asana-Math, Asana;background:transparent;"></svg>
</svg>
