<svg xmlns="http://www.w3.org/2000/svg" xmlns:xlink="http://www.w3.org/1999/xlink" x="0" y="0" width="661.8333129882812" height="125.2166748046875" style="
        width:661.8333129882812px;
        height:125.2166748046875px;
        background: transparent;
        fill: none;
">
        
        
        <svg xmlns="http://www.w3.org/2000/svg" class="role-diagram-draw-area"><g class="shapes-region" style="stroke: black; fill: none;"><g class="composite-shape"><path class="real" d=" M281.28,60.2 C281.28,49.05 290.33,40 301.49,40 C312.65,40 321.69,49.05 321.69,60.2 C321.69,71.36 312.65,80.41 301.49,80.41 C290.33,80.41 281.28,71.36 281.28,60.2 Z" style="stroke-width: 4px; stroke: rgb(0, 0, 0); stroke-opacity: 1; fill: rgb(245, 166, 35); fill-opacity: 1;"/></g><g class="composite-shape"><path class="real" d=" M279.54,114.78 C279.54,114.78 279.54,114.78 279.54,114.78 C279.54,100.28 289.75,88.53 302.34,88.53 C314.93,88.53 325.14,100.28 325.14,114.78 L302.34,114.78 Z" style="stroke-width: 4px; stroke: none; fill: rgb(245, 166, 35); fill-opacity: 1;"/><path class="real" d=" M279.54,114.78 C279.54,114.78 279.54,114.78 279.54,114.78 C279.54,100.28 289.75,88.53 302.34,88.53 C314.93,88.53 325.14,100.28 325.14,114.78" style="stroke-width: 4px; stroke: rgb(0, 0, 0); fill: none; fill-opacity: 1;"/></g><g class="composite-shape"><path class="real" d=" M340.19,41.18 C340.19,30.02 349.23,20.98 360.39,20.98 C371.55,20.98 380.6,30.02 380.6,41.18 C380.6,52.34 371.55,61.39 360.39,61.39 C349.23,61.39 340.19,52.34 340.19,41.18 Z" style="stroke-width: 4px; stroke: rgb(0, 0, 0); stroke-opacity: 1; fill: rgb(126, 211, 33); fill-opacity: 1;"/></g><g class="composite-shape"><path class="real" d=" M337,95.75 C337,95.75 337,95.75 337,95.75 C337,81.25 347.21,69.5 359.8,69.5 C372.39,69.5 382.6,81.25 382.6,95.75 L359.8,95.75 Z" style="stroke-width: 4px; stroke: none; fill: rgb(126, 211, 33); fill-opacity: 1;"/><path class="real" d=" M337,95.75 C337,95.75 337,95.75 337,95.75 C337,81.25 347.21,69.5 359.8,69.5 C372.39,69.5 382.6,81.25 382.6,95.75" style="stroke-width: 4px; stroke: rgb(0, 0, 0); fill: none; fill-opacity: 1;"/></g><g class="composite-shape"><path class="real" d=" M392,23 C392,23 392,23 392,23 C392,13.61 399.61,6 409,6 C418.39,6 426,13.61 426,23 C426,32.39 418.39,40 409,40 C397.67,40 392,40 392,40 C392,40 392,34.33 392,23 Z" style="stroke-width: 4px; stroke: rgb(0, 0, 0); fill: rgb(255, 255, 255); fill-opacity: 1;"/></g><g class="composite-shape"><path class="real" d=" M252,60 C252,60 252,60 252,60 C242.61,60 235,52.39 235,43 C235,33.61 242.61,26 252,26 C261.39,26 269,33.61 269,43 C269,54.33 269,60 269,60 C269,60 263.33,60 252,60 Z" style="stroke-width: 4px; stroke: rgb(0, 0, 0); fill: rgb(255, 255, 255); fill-opacity: 1;"/></g><g/></g><g/><g/><g/></svg>
        <svg xmlns="http://www.w3.org/2000/svg" xmlns:xlink="http://www.w3.org/1999/xlink" width="660" height="123.38333129882812" style="width:660px;height:123.38333129882812px;font-family:Asana-Math, Asana;background:transparent;"></svg>
</svg>
